<?xml version="1.0" encoding="utf-8" ?>
<svg xmlns="http://www.w3.org/2000/svg" xmlns:xlink="http://www.w3.org/1999/xlink" width="10" height="10">
	<defs>
		<clipPath id="clip_0">
			<rect x="-507" y="-5069" width="1920" height="6036" clip-rule="evenodd"/>
		</clipPath>
	</defs>
	<g clip-path="url(#clip_0)">
		<path fill="rgb(37,163,24)" stroke="none" d="M8.53365 8.53365C9.51122 7.55609 10 6.37821 10 5L8.99038 5C8.99038 6.10577 8.60177 7.04727 7.82452 7.82452C7.04727 8.60177 6.10577 8.99038 5 8.99038C3.89423 8.99038 2.95273 8.60177 2.17548 7.82452C1.39823 7.04727 1.00962 6.10577 1.00962 5C1.00962 3.89423 1.39823 2.95273 2.17548 2.17548C2.95273 1.39823 3.89423 1.00962 5 1.00962C5.38462 1.00962 5.7532 1.05769 6.10577 1.15385L6.875 0.384615C6.26602 0.128204 5.64103 0 5 0C3.62179 0 2.44392 0.488777 1.46635 1.46635C0.488777 2.44392 0 3.62179 0 5C0 6.37821 0.488777 7.55609 1.46635 8.53365C2.44392 9.51122 3.62179 10 5 10C6.37821 10 7.55609 9.51122 8.53365 8.53365ZM4.49519 5.57692L2.95673 4.03846L2.25962 4.75962L4.49519 6.99519L9.49519 1.99519L8.79808 1.29808L4.49519 5.57692Z" fill-rule="evenodd"/>
	</g>

</svg>